<?xml version="1.0" standalone="no"?>
<!DOCTYPE svg PUBLIC "-//W3C//DTD SVG 1.1//EN" "http://www.w3.org/Graphics/SVG/1.1/DTD/svg11.dtd">
<svg version="1.1" xmlns="http://www.w3.org/2000/svg" viewBox="0 0 824.6754666166564 541.272475766063" width="824.6754666166564" height="541.272475766063"><!-- svg-source:excalidraw --><metadata></metadata><defs><style class="style-fonts">
      </style></defs><g stroke-linecap="round"><g transform="translate(47.93980783075949 323.7434503892755) rotate(0 210.27271130103043 -65.25035386231775)" fill-rule="evenodd"><path d="M0 0 L151.82 3.61 L245.5 3.46 L354.7 4.19 L420.55 2.58 L419.85 -112.31 L357.36 -117.79 L149.16 -134.69 L1.31 -88.87 L0 0" stroke="none" stroke-width="0" fill="#ff69b4" fill-rule="evenodd"></path><path d="M0 0 C31.32 0.74, 62.64 1.49, 151.82 3.61 M0 0 C40.53 0.96, 81.05 1.93, 151.82 3.61 M151.82 3.61 C179.81 3.56, 207.79 3.52, 245.5 3.46 M151.82 3.61 C172.23 3.57, 192.65 3.54, 245.5 3.46 M245.5 3.46 C275.57 3.66, 305.63 3.86, 354.7 4.19 M245.5 3.46 C272.81 3.64, 300.12 3.82, 354.7 4.19 M354.7 4.19 C379.18 3.59, 403.66 2.99, 420.55 2.58 M354.7 4.19 C376.6 3.65, 398.5 3.12, 420.55 2.58 M420.55 2.58 C420.31 -36.39, 420.08 -75.37, 419.85 -112.31 M420.55 2.58 C420.36 -28.3, 420.17 -59.18, 419.85 -112.31 M419.85 -112.31 C398.32 -114.2, 376.78 -116.09, 357.36 -117.79 M419.85 -112.31 C395.08 -114.49, 370.3 -116.66, 357.36 -117.79 M357.36 -117.79 C301.04 -122.36, 244.72 -126.93, 149.16 -134.69 M357.36 -117.79 C297.44 -122.65, 237.52 -127.52, 149.16 -134.69 M149.16 -134.69 C117.37 -124.83, 85.58 -114.98, 1.31 -88.87 M149.16 -134.69 C112.3 -123.26, 75.44 -111.84, 1.31 -88.87 M1.31 -88.87 C0.8 -54.04, 0.28 -19.21, 0 0 M1.31 -88.87 C1.02 -69.14, 0.73 -49.42, 0 0 M0 0 C0 0, 0 0, 0 0 M0 0 C0 0, 0 0, 0 0" stroke="#eebefa" stroke-width="1" fill="none"></path></g></g><mask></mask><g stroke-linecap="round"><g transform="translate(43.299868951528424 228.6499415263179) rotate(0 218.91581083673526 -40.136442003854654)" fill-rule="evenodd"><path d="M0 0 L154.31 -46.23 L437.83 -24.26 L362.45 -65.57 L181.1 -80.27 L50.87 -37.76 L0 0" stroke="none" stroke-width="0" fill="#ff69b4" fill-rule="evenodd"></path><path d="M0 0 C31.59 -9.46, 63.18 -18.93, 154.31 -46.23 M0 0 C38.85 -11.64, 77.7 -23.28, 154.31 -46.23 M154.31 -46.23 C235.29 -39.95, 316.27 -33.68, 437.83 -24.26 M154.31 -46.23 C248.25 -38.95, 342.19 -31.67, 437.83 -24.26 M437.83 -24.26 C420.39 -33.82, 402.94 -43.38, 362.45 -65.57 M437.83 -24.26 C419.42 -34.35, 401.01 -44.44, 362.45 -65.57 M362.45 -65.57 C310.37 -69.79, 258.3 -74.01, 181.1 -80.27 M362.45 -65.57 C326.17 -68.51, 289.9 -71.45, 181.1 -80.27 M181.1 -80.27 C140.28 -66.95, 99.45 -53.62, 50.87 -37.76 M181.1 -80.27 C136.45 -65.7, 91.8 -51.12, 50.87 -37.76 M50.87 -37.76 C36.29 -26.94, 21.71 -16.12, 0 0 M50.87 -37.76 C38.1 -28.28, 25.33 -18.8, 0 0 M0 0 C0 0, 0 0, 0 0 M0 0 C0 0, 0 0, 0 0" stroke="#eebefa" stroke-width="1" fill="none"></path></g></g><mask></mask><g stroke-linecap="round"><g transform="translate(350.84433657262923 161.22910579497102) rotate(0 -10.382591266161114 -25.620616480839317)" fill-rule="evenodd"><path d="M0 0 L0.95 -41.64 L-9.25 -51.24 L-20.29 -41.72 L-21.72 -3.13 L0 0" stroke="none" stroke-width="0" fill="#ff69b4" fill-rule="evenodd"></path><path d="M0 0 C0.37 -16.31, 0.75 -32.62, 0.95 -41.64 M0 0 C0.32 -14.13, 0.65 -28.26, 0.95 -41.64 M0.95 -41.64 C-1.53 -43.98, -4.02 -46.32, -9.25 -51.24 M0.95 -41.64 C-2.94 -45.3, -6.82 -48.95, -9.25 -51.24 M-9.25 -51.24 C-12.34 -48.58, -15.42 -45.92, -20.29 -41.72 M-9.25 -51.24 C-11.5 -49.3, -13.75 -47.36, -20.29 -41.72 M-20.29 -41.72 C-20.77 -28.78, -21.25 -15.84, -21.72 -3.13 M-20.29 -41.72 C-20.83 -27.18, -21.36 -12.64, -21.72 -3.13 M-21.72 -3.13 C-13.85 -2, -5.99 -0.86, 0 0 M-21.72 -3.13 C-15.12 -2.18, -8.53 -1.23, 0 0 M0 0 C0 0, 0 0, 0 0 M0 0 C0 0, 0 0, 0 0" stroke="#eebefa" stroke-width="1" fill="none"></path></g></g><mask></mask><g stroke-linecap="round" transform="translate(10 10) rotate(0 402.3377333083282 260.6362378830315)"><path d="M0 0 C314.5 0, 629.01 0, 804.68 0 M0 0 C279.41 0, 558.82 0, 804.68 0 M804.68 0 C804.68 184.97, 804.68 369.95, 804.68 521.27 M804.68 0 C804.68 197.46, 804.68 394.93, 804.68 521.27 M804.68 521.27 C551.74 521.27, 298.8 521.27, 0 521.27 M804.68 521.27 C564.04 521.27, 323.4 521.27, 0 521.27 M0 521.27 C0 329.74, 0 138.21, 0 0 M0 521.27 C0 409.47, 0 297.67, 0 0" stroke="#eebefa" stroke-width="1" fill="none"></path></g></svg>